<svg xmlns="http://www.w3.org/2000/svg" viewBox="0 0 192 192">
  <rect width="192" height="192" rx="32" fill="#2563EB"/>
  <g transform="translate(40, 24)" fill="none" stroke="white" stroke-width="6" stroke-linecap="round" stroke-linejoin="round">
    <rect x="16" y="16" width="80" height="120" rx="4"/>
    <line x1="56" y1="0" x2="56" y2="16"/>
    <line x1="46" y1="0" x2="66" y2="0"/>
    <rect x="28" y="32" width="16" height="16" rx="2"/>
    <rect x="68" y="32" width="16" height="16" rx="2"/>
    <rect x="28" y="60" width="16" height="16" rx="2"/>
    <rect x="68" y="60" width="16" height="16" rx="2"/>
    <rect x="28" y="88" width="16" height="16" rx="2"/>
    <rect x="68" y="88" width="16" height="16" rx="2"/>
    <rect x="42" y="112" width="28" height="24" rx="2"/>
    <line x1="56" y1="116" x2="56" y2="132"/>
    <line x1="48" y1="124" x2="64" y2="124"/>
  </g>
</svg>
